<svg xmlns="http://www.w3.org/2000/svg" viewBox="0 0 192 192" width="192" height="192">
  <defs>
    <linearGradient id="bg" x1="0%" y1="0%" x2="100%" y2="100%">
      <stop offset="0%" stop-color="#15803d"/>
      <stop offset="100%" stop-color="#065f46"/>
    </linearGradient>
    <linearGradient id="leaf" x1="20%" y1="0%" x2="80%" y2="100%">
      <stop offset="0%" stop-color="#bbf7d0"/>
      <stop offset="60%" stop-color="#4ade80"/>
      <stop offset="100%" stop-color="#16a34a"/>
    </linearGradient>
    <linearGradient id="stem" x1="0%" y1="0%" x2="100%" y2="0%">
      <stop offset="0%" stop-color="#4ade80"/>
      <stop offset="100%" stop-color="#16a34a"/>
    </linearGradient>
    <radialGradient id="glow" cx="50%" cy="35%" r="50%">
      <stop offset="0%" stop-color="#ffffff" stop-opacity="0.18"/>
      <stop offset="100%" stop-color="#ffffff" stop-opacity="0"/>
    </radialGradient>
    <radialGradient id="dew" cx="40%" cy="35%" r="50%">
      <stop offset="0%" stop-color="#ffffff" stop-opacity="0.9"/>
      <stop offset="100%" stop-color="#a7f3d0" stop-opacity="0.3"/>
    </radialGradient>
    <filter id="shadow">
      <feDropShadow dx="0" dy="3" stdDeviation="4" flood-color="#052e16" flood-opacity="0.4"/>
    </filter>
  </defs>
  <rect width="192" height="192" rx="42" fill="url(#bg)"/>
  <rect width="192" height="192" rx="42" fill="url(#glow)"/>
  <g filter="url(#shadow)">
    <path d="M96 27 C75 27 55.5 40.5 49.5 60.75 C43.5 81 48.75 102 60.75 116.25 C69.75 126.75 81.75 133.5 93 135.75 L93 150 L99 150 L99 135.75 C110.25 133.5 122.25 126.75 131.25 116.25 C143.25 102 148.5 81 142.5 60.75 C136.5 40.5 117 27 96 27 Z"
      fill="url(#leaf)"/>
  </g>
  <path d="M96 41.25 L96 138.75" stroke="#15803d" stroke-width="2" stroke-linecap="round" opacity="0.5"/>
  <path d="M96 67.5 Q82.5 63 73.5 66.75" stroke="#15803d" stroke-width="1.5" stroke-linecap="round" fill="none" opacity="0.45"/>
  <path d="M96 82.5 Q79.5 76.875 69 81.75" stroke="#15803d" stroke-width="1.2" stroke-linecap="round" fill="none" opacity="0.4"/>
  <path d="M96 97.5 Q81 93 72 97.5" stroke="#15803d" stroke-width="1" stroke-linecap="round" fill="none" opacity="0.35"/>
  <path d="M96 67.5 Q109.5 63 118.5 66.75" stroke="#15803d" stroke-width="1.5" stroke-linecap="round" fill="none" opacity="0.45"/>
  <path d="M96 82.5 Q112.5 76.875 123 81.75" stroke="#15803d" stroke-width="1.2" stroke-linecap="round" fill="none" opacity="0.4"/>
  <path d="M96 97.5 Q111 93 120 97.5" stroke="#15803d" stroke-width="1" stroke-linecap="round" fill="none" opacity="0.35"/>
  <path d="M96 30 C86.25 33.75 75 43.125 70.5 55.5 C66.75 65.625 68.25 76.875 72 85.5 C78.75 75 86.25 60 96 52.5 C105.75 60 113.25 75 120 85.5 C123.75 76.875 125.25 65.625 121.5 55.5 C117 43.125 105.75 33.75 96 30 Z" fill="white" opacity="0.12"/>
  <rect x="92.25" y="149.25" width="7.5" height="16.5" rx="3.75" fill="url(#stem)"/>
  <ellipse cx="81.75" cy="73.125" rx="3.75" ry="4.875" fill="url(#dew)" opacity="0.85" transform="rotate(-15 81.75 73.125)"/>
  <ellipse cx="83.25" cy="71.625" rx="1.3" ry="1.7" fill="white" opacity="0.7" transform="rotate(-15 83.25 71.625)"/>
</svg>
